<svg xmlns="http://www.w3.org/2000/svg" version="1.1" xmlns:xlink="http://www.w3.org/1999/xlink" width="200" height="200"><svg xmlns="http://www.w3.org/2000/svg" version="1.1" xmlns:xlink="http://www.w3.org/1999/xlink" width="200" height="200"><svg xmlns="http://www.w3.org/2000/svg" version="1.1" xmlns:xlink="http://www.w3.org/1999/xlink" viewBox="0 0 200 200"><rect width="200" height="200" fill="url('#gradient')"></rect><defs><linearGradient id="gradient" gradientTransform="rotate(45 0.5 0.5)"><stop offset="0%" stop-color="#79b9c9"></stop><stop offset="100%" stop-color="#ffffff"></stop></linearGradient></defs><g><g fill="#003f7f" transform="matrix(10.829451137884872,0,0,10.829451137884872,36.7021330129829,176.9476255221539)" stroke="#003d82" stroke-width="0.2"><path d="M8.93-6.52L8.93-4.96L5.88-4.96Q5.93-3.67 6.58-3.06Q7.23-2.44 8.72-2.44L8.72-2.44Q9.69-2.44 10.44-2.73L10.44-2.73L10.86-0.11Q9.56 0.19 8.29 0.19L8.29 0.19Q5.65 0.19 4.09-1.18Q2.52-2.55 2.44-4.96L2.44-4.96L0.83-4.96L0.83-6.52L2.44-6.52L2.44-7.71L0.83-7.71L0.83-9.27L2.47-9.27Q2.66-11.69 4.29-13.05Q5.92-14.40 8.59-14.40L8.59-14.40Q9.63-14.40 10.86-14.10L10.86-14.10L10.44-11.46Q9.68-11.77 8.81-11.77L8.81-11.77Q7.46-11.77 6.75-11.16Q6.04-10.55 5.91-9.27L5.91-9.27L8.93-9.27L8.93-7.71L5.88-7.71L5.88-6.52L8.93-6.52Z"></path></g></g></svg></svg><style>@media (prefers-color-scheme: light) { :root { filter: none; } }
@media (prefers-color-scheme: dark) { :root { filter: none; } }
</style></svg>